<?xml version="1.0" encoding="UTF-8" standalone="no"?>
<!DOCTYPE svg PUBLIC "-//W3C//DTD SVG 1.1//EN"
 "http://www.w3.org/Graphics/SVG/1.1/DTD/svg11.dtd">
<!-- Generated by graphviz version 2.36.0 (20140111.2315)
 -->
<!-- Title: finite_state_machine Pages: 1 -->
<svg width="107pt" height="360pt"
 viewBox="0.00 0.00 107.27 360.00" xmlns="http://www.w3.org/2000/svg" xmlns:xlink="http://www.w3.org/1999/xlink">
<g id="graph0" class="graph" transform="scale(0.573248 0.573248) rotate(0) translate(4 624)">
<title>finite_state_machine</title>
<polygon fill="white" stroke="none" points="-4,4 -4,-624 183.129,-624 183.129,4 -4,4"/>
<!-- init -->
<g id="node1" class="node"><title>init</title>
<ellipse fill="black" stroke="black" cx="53.1289" cy="-618" rx="1.8" ry="1.8"/>
</g>
<!-- Start -->
<g id="node2" class="node"><title>Start</title>
<ellipse fill="none" stroke="black" cx="53.1289" cy="-550" rx="26.949" ry="27.0966"/>
<text text-anchor="middle" x="53.1289" y="-546.3" font-family="Times,serif" font-size="14.00">Start</text>
</g>
<!-- init&#45;&gt;Start -->
<g id="edge1" class="edge"><title>init&#45;&gt;Start</title>
<path fill="none" stroke="black" d="M53.1289,-615.854C53.1289,-612.181 53.1289,-600.191 53.1289,-587.502"/>
<polygon fill="black" stroke="black" points="56.629,-587.322 53.1289,-577.322 49.629,-587.322 56.629,-587.322"/>
</g>
<!-- Start&#45;&gt;Start -->
<g id="edge2" class="edge"><title>Start&#45;&gt;Start</title>
<path fill="none" stroke="black" d="M79.025,-558.572C89.4112,-559.057 98.1289,-556.199 98.1289,-550 98.1289,-546.029 94.5512,-543.429 89.249,-542.2"/>
<polygon fill="black" stroke="black" points="89.2603,-538.691 79.025,-541.428 88.7328,-545.671 89.2603,-538.691"/>
<text text-anchor="middle" x="105.129" y="-546.3" font-family="Times,serif" font-size="14.00">\w</text>
</g>
<!-- pitch -->
<g id="node3" class="node"><title>pitch</title>
<ellipse fill="none" stroke="black" cx="53.1289" cy="-445" rx="24.4343" ry="24.7476"/>
<text text-anchor="middle" x="53.1289" y="-441.9" font-family="Times,serif" font-size="12.00">pitch</text>
</g>
<!-- Start&#45;&gt;pitch -->
<g id="edge3" class="edge"><title>Start&#45;&gt;pitch</title>
<path fill="none" stroke="black" d="M53.1289,-522.475C53.1289,-509.46 53.1289,-493.638 53.1289,-479.77"/>
<polygon fill="black" stroke="black" points="56.629,-479.624 53.1289,-469.624 49.629,-479.624 56.629,-479.624"/>
<text text-anchor="middle" x="89.6289" y="-492.3" font-family="Times,serif" font-size="14.00">1,2,4,8,16,32</text>
</g>
<!-- dot -->
<g id="node4" class="node"><title>dot</title>
<ellipse fill="none" stroke="black" cx="136.129" cy="-348" rx="19.5466" ry="19.8996"/>
<text text-anchor="middle" x="136.129" y="-344.9" font-family="Times,serif" font-size="12.00">dot</text>
</g>
<!-- pitch&#45;&gt;dot -->
<g id="edge4" class="edge"><title>pitch&#45;&gt;dot</title>
<path fill="none" stroke="black" d="M69.5269,-426.126C76.2718,-418.709 84.1288,-409.986 91.1289,-402 99.8673,-392.031 109.39,-380.86 117.416,-371.355"/>
<polygon fill="black" stroke="black" points="120.265,-373.406 124.027,-363.501 114.909,-368.898 120.265,-373.406"/>
<text text-anchor="middle" x="109.629" y="-390.3" font-family="Times,serif" font-size="14.00">&#39;.&#39;</text>
</g>
<!-- sharp -->
<g id="node5" class="node"><title>sharp</title>
<ellipse fill="none" stroke="black" cx="39.1289" cy="-250" rx="25.2852" ry="25.7101"/>
<text text-anchor="middle" x="39.1289" y="-246.9" font-family="Times,serif" font-size="12.00">sharp</text>
</g>
<!-- pitch&#45;&gt;sharp -->
<g id="edge5" class="edge"><title>pitch&#45;&gt;sharp</title>
<path fill="none" stroke="black" d="M49.4319,-420.442C47.2297,-405.464 44.5875,-385.64 43.1289,-368 40.8631,-340.598 39.875,-309.485 39.4469,-286.234"/>
<polygon fill="black" stroke="black" points="42.9452,-286.09 39.2871,-276.146 35.946,-286.201 42.9452,-286.09"/>
<text text-anchor="middle" x="49.1289" y="-344.3" font-family="Times,serif" font-size="14.00">&#39;#&#39;</text>
</g>
<!-- tone -->
<g id="node6" class="node"><title>tone</title>
<ellipse fill="none" stroke="black" cx="39.1289" cy="-145" rx="22.2608" ry="22.5884"/>
<ellipse fill="none" stroke="black" cx="39.1289" cy="-145" rx="26.1701" ry="26.5553"/>
<text text-anchor="middle" x="39.1289" y="-141.9" font-family="Times,serif" font-size="12.00">tone</text>
</g>
<!-- pitch&#45;&gt;tone -->
<g id="edge6" class="edge"><title>pitch&#45;&gt;tone</title>
<path fill="none" stroke="black" d="M42.2303,-422.788C23.4601,-383.577 -11.5165,-297.083 4.1289,-224 7.56217,-207.962 14.5525,-191.237 21.3896,-177.406"/>
<polygon fill="black" stroke="black" points="24.5925,-178.831 26.0528,-168.337 18.3673,-175.63 24.5925,-178.831"/>
<text text-anchor="middle" x="18.6289" y="-298.3" font-family="Times,serif" font-size="14.00">[a&#45;h]</text>
</g>
<!-- rest -->
<g id="node7" class="node"><title>rest</title>
<ellipse fill="none" stroke="black" cx="109.129" cy="-250" rx="20.0301" ry="20.1605"/>
<ellipse fill="none" stroke="black" cx="109.129" cy="-250" rx="23.9742" ry="24.1301"/>
<text text-anchor="middle" x="109.129" y="-246.9" font-family="Times,serif" font-size="12.00">rest</text>
</g>
<!-- pitch&#45;&gt;rest -->
<g id="edge7" class="edge"><title>pitch&#45;&gt;rest</title>
<path fill="none" stroke="black" d="M57.8802,-420.823C64.2301,-391.087 76.4089,-338.083 91.1289,-294 92.4185,-290.138 93.8965,-286.133 95.439,-282.19"/>
<polygon fill="black" stroke="black" points="98.8,-283.217 99.3356,-272.636 92.3183,-280.574 98.8,-283.217"/>
<text text-anchor="middle" x="85.1289" y="-344.3" font-family="Times,serif" font-size="14.00">&#39;&#45;&#39;</text>
</g>
<!-- dot&#45;&gt;sharp -->
<g id="edge8" class="edge"><title>dot&#45;&gt;sharp</title>
<path fill="none" stroke="black" d="M122.641,-333.652C107.701,-318.865 83.2697,-294.686 64.6819,-276.29"/>
<polygon fill="black" stroke="black" points="66.6878,-273.351 57.1182,-268.804 61.7638,-278.326 66.6878,-273.351"/>
<text text-anchor="middle" x="103.129" y="-298.3" font-family="Times,serif" font-size="14.00">&#39;#&#39;</text>
</g>
<!-- dot&#45;&gt;tone -->
<g id="edge9" class="edge"><title>dot&#45;&gt;tone</title>
<path fill="none" stroke="black" d="M142.178,-329.193C149.551,-304.231 159.069,-258.077 142.129,-224 127.609,-194.791 96.3486,-173.597 72.0522,-160.737"/>
<polygon fill="black" stroke="black" points="73.633,-157.615 63.1307,-156.218 70.4695,-163.859 73.633,-157.615"/>
<text text-anchor="middle" x="165.629" y="-246.3" font-family="Times,serif" font-size="14.00">[a&#45;h]</text>
</g>
<!-- dot&#45;&gt;rest -->
<g id="edge10" class="edge"><title>dot&#45;&gt;rest</title>
<path fill="none" stroke="black" d="M131.893,-328.27C129.5,-318.086 126.349,-305.298 123.129,-294 122.1,-290.39 120.967,-286.629 119.805,-282.898"/>
<polygon fill="black" stroke="black" points="123.09,-281.681 116.712,-273.221 116.423,-283.812 123.09,-281.681"/>
<text text-anchor="middle" x="133.129" y="-298.3" font-family="Times,serif" font-size="14.00">&#39;&#45;&#39;</text>
</g>
<!-- sharp&#45;&gt;tone -->
<g id="edge11" class="edge"><title>sharp&#45;&gt;tone</title>
<path fill="none" stroke="black" d="M39.1289,-224.067C39.1289,-211.447 39.1289,-195.896 39.1289,-182.003"/>
<polygon fill="black" stroke="black" points="42.629,-181.779 39.1289,-171.779 35.629,-181.779 42.629,-181.779"/>
<text text-anchor="middle" x="52.6289" y="-194.3" font-family="Times,serif" font-size="14.00">[a&#45;h]</text>
</g>
<!-- octave -->
<g id="node8" class="node"><title>octave</title>
<ellipse fill="none" stroke="black" cx="39.1289" cy="-33" rx="28.4647" ry="28.8735"/>
<ellipse fill="none" stroke="black" cx="39.1289" cy="-33" rx="32.4" ry="32.8653"/>
<text text-anchor="middle" x="39.1289" y="-29.9" font-family="Times,serif" font-size="12.00">octave</text>
</g>
<!-- tone&#45;&gt;octave -->
<g id="edge12" class="edge"><title>tone&#45;&gt;octave</title>
<path fill="none" stroke="black" d="M39.1289,-118.21C39.1289,-105.742 39.1289,-90.4524 39.1289,-76.3392"/>
<polygon fill="black" stroke="black" points="42.629,-76.3275 39.1289,-66.3276 35.629,-76.3276 42.629,-76.3275"/>
<text text-anchor="middle" x="53.1289" y="-88.3" font-family="Times,serif" font-size="14.00">[1&#45;3]</text>
</g>
</g>
</svg>
