<?xml version="1.0" encoding="UTF-8" standalone="no"?>
<!DOCTYPE svg PUBLIC "-//W3C//DTD SVG 1.1//EN"
 "http://www.w3.org/Graphics/SVG/1.1/DTD/svg11.dtd">
<!-- Generated by graphviz version 2.36.0 (20140111.2315)
 -->
<!-- Title: finite_state_machine Pages: 1 -->
<svg width="159pt" height="360pt"
 viewBox="0.00 0.00 159.46 360.00" xmlns="http://www.w3.org/2000/svg" xmlns:xlink="http://www.w3.org/1999/xlink">
<g id="graph0" class="graph" transform="scale(0.48913 0.48913) rotate(0) translate(4 732)">
<title>finite_state_machine</title>
<polygon fill="white" stroke="none" points="-4,4 -4,-732 322,-732 322,4 -4,4"/>
<!-- init -->
<g id="node1" class="node"><title>init</title>
<ellipse fill="black" stroke="black" cx="236" cy="-726" rx="1.8" ry="1.8"/>
</g>
<!-- Start -->
<g id="node2" class="node"><title>Start</title>
<ellipse fill="none" stroke="black" cx="236" cy="-658" rx="26.949" ry="27.0966"/>
<text text-anchor="middle" x="236" y="-654.3" font-family="Times,serif" font-size="14.00">Start</text>
</g>
<!-- init&#45;&gt;Start -->
<g id="edge1" class="edge"><title>init&#45;&gt;Start</title>
<path fill="none" stroke="black" d="M236,-723.854C236,-720.181 236,-708.191 236,-695.502"/>
<polygon fill="black" stroke="black" points="239.5,-695.322 236,-685.322 232.5,-695.322 239.5,-695.322"/>
</g>
<!-- one -->
<g id="node3" class="node"><title>one</title>
<ellipse fill="none" stroke="black" cx="152" cy="-560" rx="18" ry="18"/>
<text text-anchor="middle" x="152" y="-556.9" font-family="Times,serif" font-size="12.00">1</text>
</g>
<!-- Start&#45;&gt;one -->
<g id="edge2" class="edge"><title>Start&#45;&gt;one</title>
<path fill="none" stroke="black" d="M218.186,-636.641C204.078,-620.518 184.448,-598.083 170.233,-581.837"/>
<polygon fill="black" stroke="black" points="172.57,-579.193 163.35,-573.972 167.301,-583.803 172.57,-579.193"/>
<text text-anchor="middle" x="200.5" y="-600.3" font-family="Times,serif" font-size="14.00">1</text>
</g>
<!-- three -->
<g id="node4" class="node"><title>three</title>
<ellipse fill="none" stroke="black" cx="300" cy="-560" rx="18" ry="18"/>
<text text-anchor="middle" x="300" y="-556.9" font-family="Times,serif" font-size="12.00">3</text>
</g>
<!-- Start&#45;&gt;three -->
<g id="edge4" class="edge"><title>Start&#45;&gt;three</title>
<path fill="none" stroke="black" d="M250.844,-634.734C261.03,-619.455 274.51,-599.235 284.777,-583.835"/>
<polygon fill="black" stroke="black" points="287.766,-585.66 290.401,-575.398 281.942,-581.777 287.766,-585.66"/>
<text text-anchor="middle" x="279.5" y="-600.3" font-family="Times,serif" font-size="14.00">3</text>
</g>
<!-- duration -->
<g id="node5" class="node"><title>duration</title>
<ellipse fill="none" stroke="black" cx="243" cy="-455" rx="34.2095" ry="34.4458"/>
<text text-anchor="middle" x="243" y="-451.9" font-family="Times,serif" font-size="12.00">duration</text>
</g>
<!-- Start&#45;&gt;duration -->
<g id="edge3" class="edge"><title>Start&#45;&gt;duration</title>
<path fill="none" stroke="black" d="M236.93,-630.309C238.09,-596.979 240.092,-539.511 241.477,-499.719"/>
<polygon fill="black" stroke="black" points="244.983,-499.621 241.833,-489.505 237.987,-499.377 244.983,-499.621"/>
<text text-anchor="middle" x="254" y="-556.3" font-family="Times,serif" font-size="14.00">2,4,8</text>
</g>
<!-- one&#45;&gt;duration -->
<g id="edge5" class="edge"><title>one&#45;&gt;duration</title>
<path fill="none" stroke="black" d="M165.976,-547.995C173.969,-541.41 183.969,-532.66 192,-524 201.105,-514.181 210.164,-502.78 218.064,-492.151"/>
<polygon fill="black" stroke="black" points="221.063,-493.979 224.131,-483.837 215.409,-489.852 221.063,-493.979"/>
<text text-anchor="middle" x="209.5" y="-512.3" font-family="Times,serif" font-size="14.00">6</text>
</g>
<!-- dot -->
<g id="node6" class="node"><title>dot</title>
<ellipse fill="none" stroke="black" cx="149" cy="-348" rx="19.5466" ry="19.8996"/>
<text text-anchor="middle" x="149" y="-344.9" font-family="Times,serif" font-size="12.00">dot</text>
</g>
<!-- one&#45;&gt;dot -->
<g id="edge7" class="edge"><title>one&#45;&gt;dot</title>
<path fill="none" stroke="black" d="M151.754,-541.815C151.241,-505.888 150.05,-422.494 149.415,-378.072"/>
<polygon fill="black" stroke="black" points="152.913,-377.876 149.27,-367.927 145.914,-377.976 152.913,-377.876"/>
<text text-anchor="middle" x="155.5" y="-451.3" font-family="Times,serif" font-size="14.00">&#39;.&#39;</text>
</g>
<!-- sharp -->
<g id="node7" class="node"><title>sharp</title>
<ellipse fill="none" stroke="black" cx="220" cy="-250" rx="25.2852" ry="25.7101"/>
<text text-anchor="middle" x="220" y="-246.9" font-family="Times,serif" font-size="12.00">sharp</text>
</g>
<!-- one&#45;&gt;sharp -->
<g id="edge9" class="edge"><title>one&#45;&gt;sharp</title>
<path fill="none" stroke="black" d="M159.046,-543.19C161.497,-537.257 164.105,-530.401 166,-524 190.833,-440.137 207.548,-338.367 215.208,-285.951"/>
<polygon fill="black" stroke="black" points="218.703,-286.238 216.662,-275.842 211.774,-285.242 218.703,-286.238"/>
<text text-anchor="middle" x="205" y="-390.3" font-family="Times,serif" font-size="14.00">&#39;#&#39;</text>
</g>
<!-- tone -->
<g id="node8" class="node"><title>tone</title>
<ellipse fill="none" stroke="black" cx="175" cy="-145" rx="22.2608" ry="22.5884"/>
<ellipse fill="none" stroke="black" cx="175" cy="-145" rx="26.1701" ry="26.5553"/>
<text text-anchor="middle" x="175" y="-141.9" font-family="Times,serif" font-size="12.00">tone</text>
</g>
<!-- one&#45;&gt;tone -->
<g id="edge11" class="edge"><title>one&#45;&gt;tone</title>
<path fill="none" stroke="black" d="M134.266,-555.716C94.1703,-547.162 0,-520.232 0,-456 0,-456 0,-456 0,-249 0,-185.181 87.5087,-160.115 138.764,-150.907"/>
<polygon fill="black" stroke="black" points="139.518,-154.329 148.801,-149.222 138.359,-147.426 139.518,-154.329"/>
<text text-anchor="middle" x="13.5" y="-344.3" font-family="Times,serif" font-size="14.00">[a&#45;h]</text>
</g>
<!-- rest -->
<g id="node9" class="node"><title>rest</title>
<ellipse fill="none" stroke="black" cx="89" cy="-250" rx="20.0301" ry="20.1605"/>
<ellipse fill="none" stroke="black" cx="89" cy="-250" rx="23.9742" ry="24.1301"/>
<text text-anchor="middle" x="89" y="-246.9" font-family="Times,serif" font-size="12.00">rest</text>
</g>
<!-- one&#45;&gt;rest -->
<g id="edge13" class="edge"><title>one&#45;&gt;rest</title>
<path fill="none" stroke="black" d="M145.53,-542.972C132.743,-510.541 104.323,-434.559 91,-368 85.9215,-342.63 87.1121,-335.849 86,-310 85.6435,-301.714 85.8115,-292.777 86.2083,-284.426"/>
<polygon fill="black" stroke="black" points="89.7132,-284.444 86.8109,-274.254 82.7255,-284.03 89.7132,-284.444"/>
<text text-anchor="middle" x="104" y="-390.3" font-family="Times,serif" font-size="14.00">&#39;&#45;&#39;</text>
</g>
<!-- three&#45;&gt;duration -->
<g id="edge6" class="edge"><title>three&#45;&gt;duration</title>
<path fill="none" stroke="black" d="M291.589,-543.802C284.482,-530.959 273.984,-511.989 264.563,-494.964"/>
<polygon fill="black" stroke="black" points="267.372,-492.812 259.468,-485.757 261.247,-496.202 267.372,-492.812"/>
<text text-anchor="middle" x="283.5" y="-512.3" font-family="Times,serif" font-size="14.00">2</text>
</g>
<!-- duration&#45;&gt;dot -->
<g id="edge8" class="edge"><title>duration&#45;&gt;dot</title>
<path fill="none" stroke="black" d="M212.27,-439.544C196.444,-430.701 178.003,-418.001 166,-402 160.641,-394.856 156.935,-385.962 154.388,-377.513"/>
<polygon fill="black" stroke="black" points="157.711,-376.383 151.822,-367.576 150.934,-378.133 157.711,-376.383"/>
<text text-anchor="middle" x="170.5" y="-390.3" font-family="Times,serif" font-size="14.00">&#39;.&#39;</text>
</g>
<!-- duration&#45;&gt;sharp -->
<g id="edge10" class="edge"><title>duration&#45;&gt;sharp</title>
<path fill="none" stroke="black" d="M239.202,-420.479C234.992,-383.319 228.233,-323.662 223.959,-285.941"/>
<polygon fill="black" stroke="black" points="227.427,-285.463 222.823,-275.92 220.472,-286.251 227.427,-285.463"/>
<text text-anchor="middle" x="240" y="-344.3" font-family="Times,serif" font-size="14.00">&#39;#&#39;</text>
</g>
<!-- duration&#45;&gt;tone -->
<g id="edge12" class="edge"><title>duration&#45;&gt;tone</title>
<path fill="none" stroke="black" d="M251.221,-421.197C261.11,-375.833 274.04,-291.861 254,-224 246.615,-198.994 224.974,-178.634 206.207,-164.994"/>
<polygon fill="black" stroke="black" points="208.062,-162.021 197.848,-159.207 204.077,-167.777 208.062,-162.021"/>
<text text-anchor="middle" x="278.5" y="-298.3" font-family="Times,serif" font-size="14.00">[a&#45;h]</text>
</g>
<!-- duration&#45;&gt;rest -->
<g id="edge14" class="edge"><title>duration&#45;&gt;rest</title>
<path fill="none" stroke="black" d="M210.839,-442.778C179.355,-429.957 132.889,-405.733 110,-368 94.8029,-342.947 90.0035,-309.692 88.7429,-285.041"/>
<polygon fill="black" stroke="black" points="92.2298,-284.593 88.3935,-274.717 85.2338,-284.83 92.2298,-284.593"/>
<text text-anchor="middle" x="115" y="-344.3" font-family="Times,serif" font-size="14.00">&#39;&#45;&#39;</text>
</g>
<!-- dot&#45;&gt;sharp -->
<g id="edge15" class="edge"><title>dot&#45;&gt;sharp</title>
<path fill="none" stroke="black" d="M158.552,-330.839C165.075,-320.134 174.116,-305.921 183,-294 187.112,-288.482 191.736,-282.773 196.286,-277.388"/>
<polygon fill="black" stroke="black" points="198.956,-279.651 202.831,-269.79 193.653,-275.082 198.956,-279.651"/>
<text text-anchor="middle" x="189" y="-298.3" font-family="Times,serif" font-size="14.00">&#39;#&#39;</text>
</g>
<!-- dot&#45;&gt;tone -->
<g id="edge16" class="edge"><title>dot&#45;&gt;tone</title>
<path fill="none" stroke="black" d="M149.551,-328.156C150.447,-303.943 152.691,-260.659 158,-224 160.058,-209.791 163.234,-194.309 166.286,-180.911"/>
<polygon fill="black" stroke="black" points="169.705,-181.662 168.576,-171.127 162.889,-180.067 169.705,-181.662"/>
<text text-anchor="middle" x="171.5" y="-246.3" font-family="Times,serif" font-size="14.00">[a&#45;h]</text>
</g>
<!-- dot&#45;&gt;rest -->
<g id="edge17" class="edge"><title>dot&#45;&gt;rest</title>
<path fill="none" stroke="black" d="M138.626,-331.217C134.364,-324.678 129.404,-316.999 125,-310 118.898,-300.303 112.34,-289.631 106.514,-280.062"/>
<polygon fill="black" stroke="black" points="109.373,-278.025 101.193,-271.292 103.388,-281.657 109.373,-278.025"/>
<text text-anchor="middle" x="130" y="-298.3" font-family="Times,serif" font-size="14.00">&#39;&#45;&#39;</text>
</g>
<!-- sharp&#45;&gt;tone -->
<g id="edge18" class="edge"><title>sharp&#45;&gt;tone</title>
<path fill="none" stroke="black" d="M210.013,-226.141C203.966,-212.3 196.151,-194.413 189.439,-179.05"/>
<polygon fill="black" stroke="black" points="192.639,-177.631 185.428,-169.869 186.224,-180.434 192.639,-177.631"/>
<text text-anchor="middle" x="214.5" y="-194.3" font-family="Times,serif" font-size="14.00">[a&#45;h]</text>
</g>
<!-- octave -->
<g id="node10" class="node"><title>octave</title>
<ellipse fill="none" stroke="black" cx="175" cy="-33" rx="28.4647" ry="28.8735"/>
<ellipse fill="none" stroke="black" cx="175" cy="-33" rx="32.4" ry="32.8653"/>
<text text-anchor="middle" x="175" y="-29.9" font-family="Times,serif" font-size="12.00">octave</text>
</g>
<!-- tone&#45;&gt;octave -->
<g id="edge19" class="edge"><title>tone&#45;&gt;octave</title>
<path fill="none" stroke="black" d="M175,-118.21C175,-105.742 175,-90.4524 175,-76.3392"/>
<polygon fill="black" stroke="black" points="178.5,-76.3275 175,-66.3276 171.5,-76.3276 178.5,-76.3275"/>
<text text-anchor="middle" x="189" y="-88.3" font-family="Times,serif" font-size="14.00">[1&#45;3]</text>
</g>
</g>
</svg>
