<?xml version="1.0" encoding="UTF-8" standalone="no"?>
<!DOCTYPE svg PUBLIC "-//W3C//DTD SVG 1.1//EN"
 "http://www.w3.org/Graphics/SVG/1.1/DTD/svg11.dtd">
<!-- Generated by graphviz version 2.36.0 (20140111.2315)
 -->
<!-- Title: finite_state_machine Pages: 1 -->
<svg width="387pt" height="360pt"
 viewBox="0.00 0.00 387.18 360.00" xmlns="http://www.w3.org/2000/svg" xmlns:xlink="http://www.w3.org/1999/xlink">
<g id="graph0" class="graph" transform="scale(0.493151 0.493151) rotate(0) translate(4 726)">
<title>finite_state_machine</title>
<polygon fill="white" stroke="none" points="-4,4 -4,-726 781.122,-726 781.122,4 -4,4"/>
<!-- init -->
<g id="node1" class="node"><title>init</title>
<ellipse fill="black" stroke="black" cx="306.122" cy="-720" rx="1.8" ry="1.8"/>
</g>
<!-- Start -->
<g id="node2" class="node"><title>Start</title>
<ellipse fill="none" stroke="black" cx="306.122" cy="-652" rx="26.949" ry="27.0966"/>
<text text-anchor="middle" x="306.122" y="-648.3" font-family="Times,serif" font-size="14.00">Start</text>
</g>
<!-- init&#45;&gt;Start -->
<g id="edge1" class="edge"><title>init&#45;&gt;Start</title>
<path fill="none" stroke="black" d="M306.122,-717.854C306.122,-714.181 306.122,-702.191 306.122,-689.502"/>
<polygon fill="black" stroke="black" points="309.622,-689.322 306.122,-679.322 302.622,-689.322 309.622,-689.322"/>
</g>
<!-- Start&#45;&gt;Start -->
<g id="edge2" class="edge"><title>Start&#45;&gt;Start</title>
<path fill="none" stroke="black" d="M332.018,-660.572C342.405,-661.057 351.122,-658.199 351.122,-652 351.122,-648.029 347.545,-645.429 342.242,-644.2"/>
<polygon fill="black" stroke="black" points="342.254,-640.691 332.018,-643.428 341.726,-647.671 342.254,-640.691"/>
<text text-anchor="middle" x="358.122" y="-648.3" font-family="Times,serif" font-size="14.00">\w</text>
</g>
<!-- whole -->
<g id="node3" class="node"><title>whole</title>
<ellipse fill="none" stroke="black" cx="306.122" cy="-547" rx="18" ry="18"/>
<text text-anchor="middle" x="306.122" y="-543.9" font-family="Times,serif" font-size="12.00">1</text>
</g>
<!-- Start&#45;&gt;whole -->
<g id="edge3" class="edge"><title>Start&#45;&gt;whole</title>
<path fill="none" stroke="black" d="M306.122,-624.475C306.122,-609.414 306.122,-590.594 306.122,-575.392"/>
<polygon fill="black" stroke="black" points="309.622,-575.068 306.122,-565.068 302.622,-575.068 309.622,-575.068"/>
<text text-anchor="middle" x="309.622" y="-594.3" font-family="Times,serif" font-size="14.00">1</text>
</g>
<!-- half -->
<g id="node4" class="node"><title>half</title>
<ellipse fill="none" stroke="black" cx="577.122" cy="-445" rx="18" ry="18"/>
<text text-anchor="middle" x="577.122" y="-441.9" font-family="Times,serif" font-size="12.00">2</text>
</g>
<!-- Start&#45;&gt;half -->
<g id="edge4" class="edge"><title>Start&#45;&gt;half</title>
<path fill="none" stroke="black" d="M328.732,-636.017C351.974,-620.456 389.053,-595.188 420.122,-572 469.79,-534.932 525.98,-488.76 555.826,-463.883"/>
<polygon fill="black" stroke="black" points="558.088,-466.553 563.518,-457.456 553.6,-461.182 558.088,-466.553"/>
<text text-anchor="middle" x="487.622" y="-543.3" font-family="Times,serif" font-size="14.00">2</text>
</g>
<!-- quarter -->
<g id="node5" class="node"><title>quarter</title>
<ellipse fill="none" stroke="black" cx="77.1224" cy="-445" rx="18" ry="18"/>
<text text-anchor="middle" x="77.1224" y="-441.9" font-family="Times,serif" font-size="12.00">4</text>
</g>
<!-- Start&#45;&gt;quarter -->
<g id="edge5" class="edge"><title>Start&#45;&gt;quarter</title>
<path fill="none" stroke="black" d="M282.649,-638.013C242.938,-615.135 161.698,-564.315 109.122,-504 100.675,-494.31 93.5039,-482.023 88.1046,-471.256"/>
<polygon fill="black" stroke="black" points="91.1159,-469.438 83.6586,-461.913 84.795,-472.446 91.1159,-469.438"/>
<text text-anchor="middle" x="184.622" y="-543.3" font-family="Times,serif" font-size="14.00">4</text>
</g>
<!-- eighth -->
<g id="node6" class="node"><title>eighth</title>
<ellipse fill="none" stroke="black" cx="23.1224" cy="-445" rx="18" ry="18"/>
<text text-anchor="middle" x="23.1224" y="-441.9" font-family="Times,serif" font-size="12.00">8</text>
</g>
<!-- Start&#45;&gt;eighth -->
<g id="edge6" class="edge"><title>Start&#45;&gt;eighth</title>
<path fill="none" stroke="black" d="M279.861,-644.898C240.927,-634.855 167.024,-611.874 116.122,-572 80.3195,-543.954 51.5978,-498.762 35.9899,-470.806"/>
<polygon fill="black" stroke="black" points="38.883,-468.801 31.026,-461.693 32.7358,-472.149 38.883,-468.801"/>
<text text-anchor="middle" x="119.622" y="-543.3" font-family="Times,serif" font-size="14.00">8</text>
</g>
<!-- thirty_second_1 -->
<g id="node8" class="node"><title>thirty_second_1</title>
<ellipse fill="none" stroke="black" cx="386.122" cy="-547" rx="25.3597" ry="25.4804"/>
<text text-anchor="middle" x="386.122" y="-543.9" font-family="Times,serif" font-size="12.00">32_1</text>
</g>
<!-- Start&#45;&gt;thirty_second_1 -->
<g id="edge7" class="edge"><title>Start&#45;&gt;thirty_second_1</title>
<path fill="none" stroke="black" d="M322.698,-629.658C334.891,-613.96 351.567,-592.491 364.759,-575.505"/>
<polygon fill="black" stroke="black" points="367.551,-577.617 370.921,-567.572 362.022,-573.323 367.551,-577.617"/>
<text text-anchor="middle" x="357.622" y="-594.3" font-family="Times,serif" font-size="14.00">3</text>
</g>
<!-- sixteenth -->
<g id="node7" class="node"><title>sixteenth</title>
<ellipse fill="none" stroke="black" cx="387.122" cy="-445" rx="18" ry="18"/>
<text text-anchor="middle" x="387.122" y="-441.9" font-family="Times,serif" font-size="12.00">16</text>
</g>
<!-- whole&#45;&gt;sixteenth -->
<g id="edge8" class="edge"><title>whole&#45;&gt;sixteenth</title>
<path fill="none" stroke="black" d="M317.046,-532.514C330.573,-515.814 353.779,-487.165 369.757,-467.439"/>
<polygon fill="black" stroke="black" points="372.538,-469.566 376.113,-459.592 367.099,-465.16 372.538,-469.566"/>
<text text-anchor="middle" x="355.622" y="-492.3" font-family="Times,serif" font-size="14.00">6</text>
</g>
<!-- dot -->
<g id="node10" class="node"><title>dot</title>
<ellipse fill="none" stroke="black" cx="387.122" cy="-348" rx="19.5466" ry="19.8996"/>
<text text-anchor="middle" x="387.122" y="-344.9" font-family="Times,serif" font-size="12.00">dot</text>
</g>
<!-- whole&#45;&gt;dot -->
<g id="edge10" class="edge"><title>whole&#45;&gt;dot</title>
<path fill="none" stroke="black" d="M311.298,-529.434C319.067,-505.098 334.604,-458.41 351.122,-420 357.713,-404.675 366.092,-388.018 373.107,-374.691"/>
<polygon fill="black" stroke="black" points="376.315,-376.114 377.93,-365.643 370.138,-372.821 376.315,-376.114"/>
<text text-anchor="middle" x="355.622" y="-441.3" font-family="Times,serif" font-size="14.00">&#39;.&#39;</text>
</g>
<!-- sharp -->
<g id="node11" class="node"><title>sharp</title>
<ellipse fill="none" stroke="black" cx="246.122" cy="-250" rx="25.2852" ry="25.7101"/>
<text text-anchor="middle" x="246.122" y="-246.9" font-family="Times,serif" font-size="12.00">sharp</text>
</g>
<!-- whole&#45;&gt;sharp -->
<g id="edge16" class="edge"><title>whole&#45;&gt;sharp</title>
<path fill="none" stroke="black" d="M288.226,-543.413C265.351,-539.179 225.984,-528.626 203.122,-504 159.9,-457.441 169.021,-430.753 159.122,-368 156.352,-350.439 151.822,-344.21 159.122,-328 170.594,-302.527 195.119,-282.079 215.215,-268.674"/>
<polygon fill="black" stroke="black" points="217.248,-271.528 223.788,-263.192 213.478,-265.63 217.248,-271.528"/>
<text text-anchor="middle" x="170.122" y="-390.3" font-family="Times,serif" font-size="14.00">&#39;#&#39;</text>
</g>
<!-- tone -->
<g id="node12" class="node"><title>tone</title>
<ellipse fill="none" stroke="black" cx="497.122" cy="-145" rx="22.2608" ry="22.5884"/>
<ellipse fill="none" stroke="black" cx="497.122" cy="-145" rx="26.1701" ry="26.5553"/>
<text text-anchor="middle" x="497.122" y="-141.9" font-family="Times,serif" font-size="12.00">tone</text>
</g>
<!-- whole&#45;&gt;tone -->
<g id="edge22" class="edge"><title>whole&#45;&gt;tone</title>
<path fill="none" stroke="black" d="M321.368,-536.604C330.092,-531.601 341.403,-525.729 352.122,-522 437.166,-492.415 750.122,-536.043 750.122,-446 750.122,-446 750.122,-446 750.122,-249 750.122,-156.753 604.058,-145.224 533.895,-145.007"/>
<polygon fill="black" stroke="black" points="533.703,-141.508 523.72,-145.053 533.736,-148.507 533.703,-141.508"/>
<text text-anchor="middle" x="763.622" y="-344.3" font-family="Times,serif" font-size="14.00">[a&#45;h]</text>
</g>
<!-- rest -->
<g id="node13" class="node"><title>rest</title>
<ellipse fill="none" stroke="black" cx="405.122" cy="-250" rx="20.0301" ry="20.1605"/>
<ellipse fill="none" stroke="black" cx="405.122" cy="-250" rx="23.9742" ry="24.1301"/>
<text text-anchor="middle" x="405.122" y="-246.9" font-family="Times,serif" font-size="12.00">rest</text>
</g>
<!-- whole&#45;&gt;rest -->
<g id="edge28" class="edge"><title>whole&#45;&gt;rest</title>
<path fill="none" stroke="black" d="M292.178,-535.191C261.483,-509.998 192.673,-445.027 217.122,-386 244.843,-319.076 326.748,-279.462 372.78,-261.882"/>
<polygon fill="black" stroke="black" points="374.13,-265.114 382.297,-258.366 371.704,-258.548 374.13,-265.114"/>
<text text-anchor="middle" x="222.122" y="-390.3" font-family="Times,serif" font-size="14.00">&#39;&#45;&#39;</text>
</g>
<!-- half&#45;&gt;dot -->
<g id="edge11" class="edge"><title>half&#45;&gt;dot</title>
<path fill="none" stroke="black" d="M561.029,-436.526C532.567,-423.226 471.588,-394.367 421.122,-368 418.336,-366.544 415.439,-364.99 412.565,-363.422"/>
<polygon fill="black" stroke="black" points="414.065,-360.251 403.622,-358.466 410.672,-366.374 414.065,-360.251"/>
<text text-anchor="middle" x="489.622" y="-390.3" font-family="Times,serif" font-size="14.00">&#39;.&#39;</text>
</g>
<!-- half&#45;&gt;sharp -->
<g id="edge17" class="edge"><title>half&#45;&gt;sharp</title>
<path fill="none" stroke="black" d="M580.803,-427.13C586.521,-395.889 593.419,-329.028 557.122,-294 527.4,-265.317 412.986,-282.027 372.122,-276 341.097,-271.424 306.136,-264.332 280.926,-258.868"/>
<polygon fill="black" stroke="black" points="281.615,-255.436 271.097,-256.714 280.116,-262.274 281.615,-255.436"/>
<text text-anchor="middle" x="591.122" y="-344.3" font-family="Times,serif" font-size="14.00">&#39;#&#39;</text>
</g>
<!-- half&#45;&gt;tone -->
<g id="edge23" class="edge"><title>half&#45;&gt;tone</title>
<path fill="none" stroke="black" d="M590.85,-433.134C618.972,-409.459 679.109,-350.779 662.122,-294 642.743,-229.221 572.234,-183.644 529.913,-161.426"/>
<polygon fill="black" stroke="black" points="531.327,-158.218 520.829,-156.788 528.144,-164.453 531.327,-158.218"/>
<text text-anchor="middle" x="678.622" y="-298.3" font-family="Times,serif" font-size="14.00">[a&#45;h]</text>
</g>
<!-- half&#45;&gt;rest -->
<g id="edge29" class="edge"><title>half&#45;&gt;rest</title>
<path fill="none" stroke="black" d="M584.711,-428.348C598.208,-397.983 621.866,-330.832 587.122,-294 563.631,-269.097 465.461,-289.781 434.122,-276 432.753,-275.398 431.401,-274.709 430.073,-273.952"/>
<polygon fill="black" stroke="black" points="431.957,-271 421.741,-268.194 427.978,-276.759 431.957,-271"/>
<text text-anchor="middle" x="611.122" y="-344.3" font-family="Times,serif" font-size="14.00">&#39;&#45;&#39;</text>
</g>
<!-- quarter&#45;&gt;dot -->
<g id="edge12" class="edge"><title>quarter&#45;&gt;dot</title>
<path fill="none" stroke="black" d="M94.9854,-442.187C128.57,-438.291 202.892,-427.331 260.122,-402 271.509,-396.96 271.802,-391.188 283.122,-386 312.325,-372.616 323.298,-379.934 353.122,-368 356.042,-366.832 359.022,-365.461 361.945,-364"/>
<polygon fill="black" stroke="black" points="363.793,-366.981 370.943,-359.162 360.478,-360.815 363.793,-366.981"/>
<text text-anchor="middle" x="287.622" y="-390.3" font-family="Times,serif" font-size="14.00">&#39;.&#39;</text>
</g>
<!-- quarter&#45;&gt;sharp -->
<g id="edge18" class="edge"><title>quarter&#45;&gt;sharp</title>
<path fill="none" stroke="black" d="M73.679,-427.077C68.3985,-395.746 62.4247,-328.743 99.1224,-294 129.353,-265.38 177.585,-255.684 210.496,-252.469"/>
<polygon fill="black" stroke="black" points="210.921,-255.946 220.6,-251.637 210.347,-248.969 210.921,-255.946"/>
<text text-anchor="middle" x="84.1224" y="-344.3" font-family="Times,serif" font-size="14.00">&#39;#&#39;</text>
</g>
<!-- quarter&#45;&gt;tone -->
<g id="edge24" class="edge"><title>quarter&#45;&gt;tone</title>
<path fill="none" stroke="black" d="M66.0302,-430.475C54.961,-416.029 38.6835,-391.959 32.1224,-368 22.9901,-334.652 29.4598,-316.013 56.1224,-294 180.539,-191.28 379.342,-158.75 460.659,-149.416"/>
<polygon fill="black" stroke="black" points="461.326,-152.864 470.885,-148.295 460.563,-145.906 461.326,-152.864"/>
<text text-anchor="middle" x="69.6224" y="-298.3" font-family="Times,serif" font-size="14.00">[a&#45;h]</text>
</g>
<!-- quarter&#45;&gt;rest -->
<g id="edge30" class="edge"><title>quarter&#45;&gt;rest</title>
<path fill="none" stroke="black" d="M94.4367,-439.797C114.668,-434.138 148.165,-422.353 170.122,-402 210.236,-364.818 185.753,-327.328 229.122,-294 240.392,-285.34 323.475,-267.475 371.353,-257.719"/>
<polygon fill="black" stroke="black" points="372.175,-261.124 381.281,-255.709 370.786,-254.263 372.175,-261.124"/>
<text text-anchor="middle" x="209.122" y="-344.3" font-family="Times,serif" font-size="14.00">&#39;&#45;&#39;</text>
</g>
<!-- eighth&#45;&gt;dot -->
<g id="edge13" class="edge"><title>eighth&#45;&gt;dot</title>
<path fill="none" stroke="black" d="M34.5841,-430.934C39.0037,-426.735 44.3798,-422.521 50.1224,-420 122.929,-388.034 153.546,-429.586 228.122,-402 239.801,-397.68 239.611,-390.748 251.122,-386 293.678,-368.446 309.757,-383.444 353.122,-368 356.084,-366.945 359.092,-365.647 362.031,-364.228"/>
<polygon fill="black" stroke="black" points="363.859,-367.22 371.046,-359.436 360.574,-361.039 363.859,-367.22"/>
<text text-anchor="middle" x="255.622" y="-390.3" font-family="Times,serif" font-size="14.00">&#39;.&#39;</text>
</g>
<!-- eighth&#45;&gt;sharp -->
<g id="edge19" class="edge"><title>eighth&#45;&gt;sharp</title>
<path fill="none" stroke="black" d="M23.9341,-426.78C26.531,-393.997 37.4275,-323.283 83.1224,-294 122.314,-268.885 175.723,-258.38 210.557,-254.024"/>
<polygon fill="black" stroke="black" points="211.197,-257.474 220.735,-252.861 210.402,-250.519 211.197,-257.474"/>
<text text-anchor="middle" x="58.1224" y="-344.3" font-family="Times,serif" font-size="14.00">&#39;#&#39;</text>
</g>
<!-- eighth&#45;&gt;tone -->
<g id="edge25" class="edge"><title>eighth&#45;&gt;tone</title>
<path fill="none" stroke="black" d="M16.8602,-427.939C6.85129,-399.664 -9.7947,-339.67 9.12236,-294 25.9596,-253.351 40.8544,-245.711 79.1224,-224 205.45,-152.329 384.495,-144.751 460.611,-145.083"/>
<polygon fill="black" stroke="black" points="460.62,-148.583 470.652,-145.176 460.685,-141.583 460.62,-148.583"/>
<text text-anchor="middle" x="22.6224" y="-298.3" font-family="Times,serif" font-size="14.00">[a&#45;h]</text>
</g>
<!-- eighth&#45;&gt;rest -->
<g id="edge31" class="edge"><title>eighth&#45;&gt;rest</title>
<path fill="none" stroke="black" d="M35.0159,-431.032C39.3976,-426.945 44.6394,-422.777 50.1224,-420 84.1828,-402.747 102.998,-424.115 134.122,-402 181.968,-368.004 159.312,-323.381 210.122,-294 217.121,-289.953 317.482,-268.968 371.411,-257.881"/>
<polygon fill="black" stroke="black" points="372.443,-261.242 381.536,-255.804 371.036,-254.385 372.443,-261.242"/>
<text text-anchor="middle" x="183.122" y="-344.3" font-family="Times,serif" font-size="14.00">&#39;&#45;&#39;</text>
</g>
<!-- sixteenth&#45;&gt;dot -->
<g id="edge14" class="edge"><title>sixteenth&#45;&gt;dot</title>
<path fill="none" stroke="black" d="M387.122,-426.576C387.122,-413.084 387.122,-394.092 387.122,-378.278"/>
<polygon fill="black" stroke="black" points="390.622,-377.943 387.122,-367.943 383.622,-377.943 390.622,-377.943"/>
<text text-anchor="middle" x="391.622" y="-390.3" font-family="Times,serif" font-size="14.00">&#39;.&#39;</text>
</g>
<!-- sixteenth&#45;&gt;sharp -->
<g id="edge20" class="edge"><title>sixteenth&#45;&gt;sharp</title>
<path fill="none" stroke="black" d="M375.18,-431.061C371.689,-427.41 367.816,-423.485 364.122,-420 338.209,-395.553 324.939,-396.163 303.122,-368 283.299,-342.41 267.812,-308.821 258.016,-284.199"/>
<polygon fill="black" stroke="black" points="261.166,-282.641 254.294,-274.577 254.637,-285.166 261.166,-282.641"/>
<text text-anchor="middle" x="309.122" y="-344.3" font-family="Times,serif" font-size="14.00">&#39;#&#39;</text>
</g>
<!-- sixteenth&#45;&gt;tone -->
<g id="edge26" class="edge"><title>sixteenth&#45;&gt;tone</title>
<path fill="none" stroke="black" d="M399.06,-431.118C403.445,-427.038 408.678,-422.853 414.122,-420 444.104,-404.291 466.477,-428.022 488.122,-402 495.023,-393.704 496.633,-250.799 497.009,-182.192"/>
<polygon fill="black" stroke="black" points="500.51,-181.868 497.059,-171.852 493.51,-181.834 500.51,-181.868"/>
<text text-anchor="middle" x="509.622" y="-298.3" font-family="Times,serif" font-size="14.00">[a&#45;h]</text>
</g>
<!-- sixteenth&#45;&gt;rest -->
<g id="edge32" class="edge"><title>sixteenth&#45;&gt;rest</title>
<path fill="none" stroke="black" d="M394.707,-428.444C401.593,-413.394 411.246,-389.733 415.122,-368 420.142,-339.853 416.661,-307.431 412.486,-283.866"/>
<polygon fill="black" stroke="black" points="415.922,-283.197 410.612,-274.029 409.045,-284.507 415.922,-283.197"/>
<text text-anchor="middle" x="423.122" y="-344.3" font-family="Times,serif" font-size="14.00">&#39;&#45;&#39;</text>
</g>
<!-- thirty_second_2 -->
<g id="node9" class="node"><title>thirty_second_2</title>
<ellipse fill="none" stroke="black" cx="448.122" cy="-445" rx="25.3597" ry="25.4804"/>
<text text-anchor="middle" x="448.122" y="-441.9" font-family="Times,serif" font-size="12.00">32_2</text>
</g>
<!-- thirty_second_1&#45;&gt;thirty_second_2 -->
<g id="edge9" class="edge"><title>thirty_second_1&#45;&gt;thirty_second_2</title>
<path fill="none" stroke="black" d="M398.969,-525.28C407.804,-511.029 419.678,-491.878 429.542,-475.969"/>
<polygon fill="black" stroke="black" points="432.784,-477.381 435.079,-467.038 426.835,-473.692 432.784,-477.381"/>
<text text-anchor="middle" x="424.622" y="-492.3" font-family="Times,serif" font-size="14.00">2</text>
</g>
<!-- thirty_second_2&#45;&gt;dot -->
<g id="edge15" class="edge"><title>thirty_second_2&#45;&gt;dot</title>
<path fill="none" stroke="black" d="M434.886,-423.386C425.454,-408.697 412.738,-388.894 402.798,-373.413"/>
<polygon fill="black" stroke="black" points="405.66,-371.393 397.312,-364.869 399.77,-375.175 405.66,-371.393"/>
<text text-anchor="middle" x="424.622" y="-390.3" font-family="Times,serif" font-size="14.00">&#39;.&#39;</text>
</g>
<!-- thirty_second_2&#45;&gt;sharp -->
<g id="edge21" class="edge"><title>thirty_second_2&#45;&gt;sharp</title>
<path fill="none" stroke="black" d="M428.188,-429.487C423.619,-426.285 418.744,-422.965 414.122,-420 400.712,-411.398 395.952,-411.446 383.122,-402 365.138,-388.759 361.238,-384.44 346.122,-368 330.899,-351.443 329.525,-345.275 315.122,-328 300.671,-310.667 283.773,-291.789 270.317,-277.062"/>
<polygon fill="black" stroke="black" points="272.573,-274.344 263.232,-269.344 267.416,-279.078 272.573,-274.344"/>
<text text-anchor="middle" x="352.122" y="-344.3" font-family="Times,serif" font-size="14.00">&#39;#&#39;</text>
</g>
<!-- thirty_second_2&#45;&gt;tone -->
<g id="edge27" class="edge"><title>thirty_second_2&#45;&gt;tone</title>
<path fill="none" stroke="black" d="M472.127,-436.946C515.278,-423.726 603.061,-394.192 620.122,-368 666.027,-297.53 575.1,-208.73 525.866,-168.11"/>
<polygon fill="black" stroke="black" points="528.035,-165.363 518.062,-161.786 523.627,-170.801 528.035,-165.363"/>
<text text-anchor="middle" x="644.622" y="-298.3" font-family="Times,serif" font-size="14.00">[a&#45;h]</text>
</g>
<!-- thirty_second_2&#45;&gt;rest -->
<g id="edge33" class="edge"><title>thirty_second_2&#45;&gt;rest</title>
<path fill="none" stroke="black" d="M469.817,-432.005C480.46,-424.829 492.233,-414.639 498.122,-402 501.126,-395.554 500.235,-392.79 498.122,-386 484.619,-342.596 451.766,-300.804 428.963,-275.507"/>
<polygon fill="black" stroke="black" points="431.299,-272.876 421.95,-267.892 426.15,-277.618 431.299,-272.876"/>
<text text-anchor="middle" x="497.122" y="-344.3" font-family="Times,serif" font-size="14.00">&#39;&#45;&#39;</text>
</g>
<!-- dot&#45;&gt;sharp -->
<g id="edge34" class="edge"><title>dot&#45;&gt;sharp</title>
<path fill="none" stroke="black" d="M378.093,-330.315C371.168,-318.825 360.682,-303.903 348.122,-294 328.151,-278.252 301.568,-267.295 280.548,-260.383"/>
<polygon fill="black" stroke="black" points="281.318,-256.957 270.729,-257.312 279.228,-263.638 281.318,-256.957"/>
<text text-anchor="middle" x="370.122" y="-298.3" font-family="Times,serif" font-size="14.00">&#39;#&#39;</text>
</g>
<!-- dot&#45;&gt;tone -->
<g id="edge35" class="edge"><title>dot&#45;&gt;tone</title>
<path fill="none" stroke="black" d="M398.961,-332.344C409.922,-318.376 426.266,-296.493 438.122,-276 456.361,-244.473 473.102,-206.304 484.055,-179.507"/>
<polygon fill="black" stroke="black" points="487.321,-180.766 487.82,-170.183 480.83,-178.145 487.321,-180.766"/>
<text text-anchor="middle" x="477.622" y="-246.3" font-family="Times,serif" font-size="14.00">[a&#45;h]</text>
</g>
<!-- dot&#45;&gt;rest -->
<g id="edge36" class="edge"><title>dot&#45;&gt;rest</title>
<path fill="none" stroke="black" d="M390.593,-328.49C392.95,-315.918 396.134,-298.938 398.92,-284.078"/>
<polygon fill="black" stroke="black" points="402.368,-284.682 400.771,-274.208 395.488,-283.392 402.368,-284.682"/>
<text text-anchor="middle" x="402.122" y="-298.3" font-family="Times,serif" font-size="14.00">&#39;&#45;&#39;</text>
</g>
<!-- sharp&#45;&gt;tone -->
<g id="edge37" class="edge"><title>sharp&#45;&gt;tone</title>
<path fill="none" stroke="black" d="M269.736,-239.31C314.449,-220.962 411.609,-181.091 463.258,-159.897"/>
<polygon fill="black" stroke="black" points="464.728,-163.077 472.65,-156.042 462.07,-156.601 464.728,-163.077"/>
<text text-anchor="middle" x="400.622" y="-194.3" font-family="Times,serif" font-size="14.00">[a&#45;h]</text>
</g>
<!-- octave -->
<g id="node14" class="node"><title>octave</title>
<ellipse fill="none" stroke="black" cx="497.122" cy="-33" rx="28.4647" ry="28.8735"/>
<ellipse fill="none" stroke="black" cx="497.122" cy="-33" rx="32.4" ry="32.8653"/>
<text text-anchor="middle" x="497.122" y="-29.9" font-family="Times,serif" font-size="12.00">octave</text>
</g>
<!-- tone&#45;&gt;octave -->
<g id="edge38" class="edge"><title>tone&#45;&gt;octave</title>
<path fill="none" stroke="black" d="M497.122,-118.21C497.122,-105.742 497.122,-90.4524 497.122,-76.3392"/>
<polygon fill="black" stroke="black" points="500.622,-76.3275 497.122,-66.3276 493.622,-76.3276 500.622,-76.3275"/>
<text text-anchor="middle" x="511.122" y="-88.3" font-family="Times,serif" font-size="14.00">[1&#45;3]</text>
</g>
</g>
</svg>
